Coordinates
version=1
nRows=105
nColumns=11
inDegrees=no

Units are S.I. units (second, meters, Newtons, ...)
If the header above contains a line with 'inDegrees', this indicates whether rotational values are in degrees (yes) or radians (no).

endheader
time	pelvis_tilt	pelvis_tx	pelvis_ty	hip_flexion_r	knee_angle_r	ankle_angle_r	hip_flexion_l	knee_angle_l	ankle_angle_l	lumbar_extension
105.19	0.0440221	0.316076	1.00806	0.0958332	-0.0574085	0.1038	-0.0332208	-0.765301	0.0585766	0
105.2	0.0442327	0.316077	1.00878	0.0842088	-0.0530477	0.112458	-0.00747028	-0.810283	0.0495872	0
105.21	0.0427947	0.315371	1.00936	0.0736569	-0.0473136	0.118162	0.0181301	-0.850527	0.0594785	0
105.22	0.0424527	0.315565	1.00967	0.0620009	-0.0410624	0.125299	0.0421462	-0.887143	0.0761621	0
105.23	0.0649206	0.318826	1.01161	0.0252296	-0.0454059	0.133255	0.0380253	-0.925688	0.0865661	0
105.24	0.0667832	0.3193	1.01242	0.00965168	-0.0383842	0.138613	0.0586617	-0.956168	0.0958351	0
105.25	0.0666922	0.319229	1.01294	-0.000883083	-0.0354282	0.145534	0.0817964	-0.983209	0.100225	0
105.26	0.0643511	0.318244	1.01317	-0.00603134	-0.0359524	0.151548	0.108577	-1.00745	0.101455	0
105.27	0.0403424	0.314098	1.01214	0.00871396	-0.0195269	0.155317	0.160398	-1.02094	0.105766	0
105.28	0.0629635	0.31688	1.0142	-0.0247339	-0.0298586	0.164245	0.151109	-1.03554	0.10759	0
105.29	0.0623982	0.316226	1.01479	-0.032617	-0.0295645	0.17071	0.16937	-1.04133	0.112369	0
105.3	0.016886	0.306746	1.01191	0.0195802	-0.0262162	0.167437	0.255496	-1.05419	0.117808	0
105.31	0.0529065	0.312051	1.01535	-0.0301078	-0.0399695	0.181506	0.220622	-1.04613	0.114847	0
105.32	0.0513051	0.310608	1.01593	-0.0345087	-0.04275	0.187794	0.239191	-1.0394	0.115047	0
105.33	0.0216907	0.304589	1.01443	-0.00635419	-0.034067	0.188244	0.293347	-1.02592	0.119222	0
105.34	0.0437993	0.306781	1.01641	-0.0329242	-0.0554677	0.197436	0.277651	-1.01395	0.116691	0
105.35	0.00313233	0.298094	1.01382	0.0117849	-0.0495345	0.193786	0.346751	-0.996787	0.124156	0
105.36	0.00163169	0.296628	1.01421	0.00814898	-0.0520591	0.197922	0.357891	-0.971088	0.133034	0
105.37	-0.00228756	0.294547	1.0142	0.00956948	-0.0578099	0.202248	0.373573	-0.945473	0.136929	0
105.38	0.00672331	0.295124	1.01541	-0.00834715	-0.0620986	0.210394	0.366109	-0.911082	0.141945	0
105.39	0.00456838	0.293252	1.01542	-0.0113931	-0.0663958	0.217284	0.375237	-0.879409	0.148049	0
105.4	0.00540214	0.292961	1.01548	-0.018167	-0.0700679	0.223561	0.379215	-0.844109	0.1504	0
105.41	0.00376585	0.291879	1.01545	-0.0229897	-0.0722126	0.228404	0.383691	-0.803632	0.153525	0
105.42	0.00124193	0.290329	1.01527	-0.0251423	-0.0761742	0.232408	0.390084	-0.763873	0.156844	0
105.43	-0.00210399	0.288629	1.01482	-0.0265922	-0.0795535	0.238126	0.397099	-0.724318	0.159889	0
105.44	-0.0176653	0.284625	1.01326	-0.0130032	-0.0809924	0.23926	0.417304	-0.679687	0.160985	0
105.45	-0.0191415	0.283651	1.01279	-0.0181631	-0.0828691	0.244875	0.415583	-0.628009	0.162238	0
105.46	-0.0197677	0.283063	1.01217	-0.0254437	-0.0829499	0.252687	0.411345	-0.574826	0.160302	0
105.47	-0.020611	0.282246	1.01148	-0.0324094	-0.0830961	0.258278	0.405931	-0.519236	0.151407	0
105.48	-0.0225041	0.280799	1.01042	-0.0394201	-0.0803263	0.263435	0.402528	-0.464335	0.143625	0
105.49	-0.00860803	0.282447	1.01064	-0.0667756	-0.080832	0.275343	0.375131	-0.4063	0.141316	0
105.5	-0.00848371	0.282195	1.00985	-0.0742516	-0.0825018	0.284079	0.364878	-0.345401	0.137049	0
105.51	-0.0099149	0.282788	1.00878	-0.0774782	-0.0858336	0.292846	0.35724	-0.283787	0.129087	0
105.52	-0.0247134	0.279001	1.00656	-0.0643637	-0.0911311	0.298404	0.366759	-0.227781	0.115133	0
105.53	-0.0257192	0.278483	1.00508	-0.0687208	-0.0965463	0.305623	0.359196	-0.173908	0.107095	0
105.54	-0.027033	0.277955	1.00343	-0.0725017	-0.102501	0.312508	0.352177	-0.124051	0.10093	0
105.55	-0.0142281	0.280379	1.00308	-0.0969798	-0.105505	0.324589	0.324798	-0.0754792	0.10083	0
105.56	-0.0123323	0.281177	1.00172	-0.107517	-0.106675	0.334614	0.311671	-0.0298181	0.0995633	0
105.57	-0.0112412	0.281403	1.00013	-0.11595	-0.110129	0.345141	0.302841	0.00635971	0.0998715	0
105.58	-0.0107204	0.281522	0.998386	-0.122626	-0.115942	0.354577	0.295862	0.0366459	0.0997744	0
105.59	-0.00993983	0.281776	0.996805	-0.1281	-0.12496	0.363657	0.28618	0.0652785	0.0972856	0
105.6	-0.00604278	0.282932	0.9955	-0.138802	-0.13304	0.373603	0.275501	0.0795695	0.104904	0
105.61	-0.0166294	0.281885	0.993063	-0.130734	-0.139663	0.379393	0.286342	0.0835074	0.107972	0
105.62	-0.0149682	0.282867	0.991804	-0.138486	-0.147248	0.385136	0.281938	0.0787227	0.108369	0
105.63	-0.00202789	0.285666	0.991514	-0.159165	-0.157438	0.394636	0.264558	0.0665489	0.101825	0
105.64	-0.0104698	0.284257	0.989719	-0.150908	-0.168569	0.399785	0.277515	0.0496518	0.0803837	0
105.65	0.00201619	0.287416	0.989751	-0.170724	-0.179965	0.406956	0.260804	0.0375848	0.0633309	0
105.66	0.00499392	0.288917	0.988957	-0.178965	-0.190107	0.406656	0.252798	0.0326095	0.043776	0
105.67	0.00764353	0.29005	0.988207	-0.184645	-0.203165	0.402489	0.244363	0.029851	0.021222	0
105.68	0.0106479	0.291379	0.987761	-0.189526	-0.218401	0.40078	0.235767	0.0277739	-0.00397978	0
105.69	0.0136118	0.292961	0.987614	-0.193888	-0.234957	0.399818	0.227452	0.0246307	-0.0267795	0
105.7	0.0171522	0.294525	0.988001	-0.197752	-0.253832	0.396052	0.21676	0.0230627	-0.0378489	0
105.71	0.0212833	0.296202	0.988758	-0.20104	-0.274967	0.389838	0.205111	0.0199055	-0.0376164	0
105.72	0.025869	0.297855	0.989767	-0.202952	-0.299636	0.382581	0.19427	0.0133885	-0.0311655	0
105.73	0.0300667	0.29949	0.990966	-0.200902	-0.330299	0.369656	0.183563	0.00740425	-0.0203095	0
105.74	0.0342044	0.300969	0.992319	-0.194724	-0.366892	0.350964	0.17175	0.00285125	-0.0076651	0
105.75	0.0381396	0.3026	0.994002	-0.186174	-0.406081	0.330444	0.156697	0.00226909	0.0030753	0
105.76	0.0418314	0.304286	0.995996	-0.174329	-0.449193	0.303042	0.138613	0.00719269	0.0111392	0
105.77	0.045082	0.305402	0.997954	-0.157742	-0.497449	0.270042	0.120814	0.0144564	0.0175843	0
105.78	0.0478026	0.306155	0.999645	-0.137918	-0.547966	0.229212	0.102571	0.0232919	0.0254461	0
105.79	0.049779	0.306618	1.00113	-0.113997	-0.60152	0.190659	0.0875696	0.0284809	0.0376122	0
105.8	0.0512604	0.306989	1.00275	-0.086362	-0.657533	0.149876	0.0744718	0.0321424	0.0425158	0
105.81	0.0521021	0.30689	1.00427	-0.0554474	-0.715872	0.108413	0.061517	0.0366449	0.0460225	0
105.82	0.0524601	0.306278	1.00532	-0.0222257	-0.773815	0.0702484	0.0484851	0.044932	0.0505058	0
105.83	0.0522303	0.305961	1.00592	0.00961558	-0.826255	0.0443332	0.0346786	0.055312	0.0540227	0
105.84	0.0720252	0.308174	1.00759	0.0160459	-0.878037	0.0279684	-0.000518023	0.0558183	0.0594469	0
105.85	0.0746016	0.308065	1.00828	0.0412088	-0.920328	0.0320871	-0.0185771	0.0673181	0.0640223	0
105.86	0.0757011	0.307791	1.00887	0.0671414	-0.958642	0.0458679	-0.032194	0.0746798	0.0699616	0
105.87	0.0739945	0.306582	1.00915	0.098009	-0.994942	0.053789	-0.040922	0.0806546	0.0750829	0
105.88	0.0497548	0.301765	1.00782	0.158893	-1.02708	0.0602975	-0.0238314	0.095316	0.0768441	0
105.89	0.0401197	0.298554	1.0073	0.203056	-1.06168	0.064809	-0.0188301	0.0958473	0.079883	0
105.9	0.0398566	0.297193	1.0077	0.228936	-1.08203	0.0667716	-0.0274317	0.0980186	0.0867466	0
105.91	0.0372595	0.29559	1.00804	0.256035	-1.09574	0.0657392	-0.0361185	0.106835	0.0857367	0
105.92	0.0351704	0.29427	1.00869	0.279586	-1.10296	0.0659381	-0.045466	0.113832	0.086372	0
105.93	0.0330529	0.292553	1.00936	0.303181	-1.10693	0.0708509	-0.0443362	0.102406	0.0976498	0
105.94	0.0323226	0.291563	1.00996	0.324357	-1.10607	0.0741892	-0.0455844	0.0946633	0.107392	0
105.95	0.0311628	0.289029	1.01067	0.341891	-1.09905	0.0751473	-0.0531698	0.0952064	0.112167	0
105.96	0.0300431	0.287017	1.01117	0.359051	-1.08594	0.0764487	-0.0571759	0.0920644	0.119505	0
105.97	0.0445812	0.288223	1.01337	0.348547	-1.05928	0.0784476	-0.0779929	0.0805696	0.135099	0
105.98	0.0429899	0.286107	1.01383	0.362552	-1.03663	0.0874111	-0.0793498	0.073503	0.145006	0
105.99	0.0256491	0.280866	1.01263	0.400587	-1.01649	0.0950984	-0.0637146	0.0749916	0.143721	0
106	0.0237532	0.279028	1.01297	0.411867	-0.984375	0.101518	-0.0637649	0.0668693	0.150126	0
106.01	0.0358871	0.27961	1.01467	0.399654	-0.942131	0.101299	-0.0800822	0.0535975	0.164198	0
106.02	0.0352242	0.277467	1.01499	0.405004	-0.902769	0.103887	-0.0835376	0.0467918	0.175573	0
106.03	0.0368681	0.27646	1.01536	0.406145	-0.860427	0.107496	-0.09288	0.0477581	0.183151	0
106.04	0.0368463	0.275041	1.01551	0.407597	-0.815475	0.113339	-0.0997047	0.0476552	0.185607	0
106.05	0.0360841	0.273374	1.01541	0.409818	-0.769865	0.117491	-0.101449	0.0402863	0.194078	0
106.06	0.0206336	0.268876	1.01369	0.433455	-0.728241	0.118473	-0.0845802	0.0343742	0.197866	0
106.07	0.0198221	0.267418	1.01307	0.43352	-0.680684	0.115111	-0.0902675	0.0330309	0.205087	0
106.08	0.0190628	0.265963	1.01224	0.432309	-0.631346	0.109615	-0.0981355	0.0355292	0.21379	0
106.09	0.0189058	0.264539	1.01137	0.429129	-0.580311	0.103649	-0.10444	0.0344585	0.223301	0
106.1	0.0193875	0.263481	1.01054	0.423334	-0.527668	0.100184	-0.109563	0.0280827	0.235109	0
106.11	0.0370513	0.265663	1.01135	0.390736	-0.471267	0.0979567	-0.141574	0.0265822	0.247613	0
106.12	0.0387543	0.26545	1.01044	0.380733	-0.417195	0.0967985	-0.157903	0.0371136	0.250856	0
106.13	0.0394023	0.264849	1.00913	0.372898	-0.365459	0.0957434	-0.170609	0.0437792	0.258349	0
106.14	0.0411806	0.264532	1.0077	0.364055	-0.31434	0.0933136	-0.179667	0.0424407	0.270327	0
106.15	0.0218443	0.260188	1.00464	0.381912	-0.264097	0.0863235	-0.159521	0.0378545	0.274468	0
106.16	0.0216471	0.2598	1.00348	0.37292	-0.215164	0.0825903	-0.16871	0.0396844	0.279879	0
106.17	0.0384114	0.262629	1.00383	0.341151	-0.168495	0.0818536	-0.200789	0.0417436	0.288492	0
106.18	0.0240412	0.25973	1.00133	0.3516	-0.126799	0.0776361	-0.188957	0.0398143	0.289327	0
106.19	0.0247664	0.259621	1.0003	0.341612	-0.0883657	0.0780157	-0.194004	0.0320206	0.298311	0
106.2	0.0247873	0.259474	0.999172	0.333739	-0.0565491	0.0771861	-0.201386	0.0291034	0.306295	0
106.21	0.038973	0.26216	0.999281	0.306954	-0.0294781	0.0804993	-0.227518	0.0255257	0.319692	0
106.22	0.0411225	0.262502	0.998388	0.297441	-0.0107507	0.0873444	-0.236008	0.0196405	0.329569	0
106.23	0.0433082	0.262837	0.997592	0.289362	-0.000700198	0.0973013	-0.244585	0.0136397	0.336836	0
